<?xml version="1.0" standalone="no"?>
<!DOCTYPE svg PUBLIC "-//W3C//DTD SVG 20010904//EN"
 "http://www.w3.org/TR/2001/REC-SVG-20010904/DTD/svg10.dtd">
<svg version="1.0" xmlns="http://www.w3.org/2000/svg"
 width="32.000000pt" height="32.000000pt" viewBox="0 0 32.000000 32.000000"
 preserveAspectRatio="xMidYMid meet">

<g transform="translate(0.000000,32.000000) scale(0.100000,-0.100000)"
fill="#000000" stroke="none">
<path d="M20 291 c0 -6 11 -11 25 -11 17 0 25 -6 25 -17 1 -40 20 -165 27
-176 4 -7 8 -19 8 -27 0 -8 7 -15 15 -15 8 0 14 8 14 17 -1 14 6 18 36 18 30
0 37 -4 36 -18 0 -9 6 -17 14 -17 9 0 15 11 17 28 2 27 2 27 -63 27 -36 0 -64
4 -64 10 0 6 30 10 70 10 78 0 83 4 95 78 l7 42 -95 0 -96 0 -3 28 c-2 22 -8
28 -35 30 -19 2 -33 -1 -33 -7z m236 -83 c-3 -7 -7 -25 -10 -40 -6 -27 -8 -28
-76 -28 l-70 0 0 40 0 40 80 0 c59 0 78 -3 76 -12z"/>
</g>
</svg>
